<mxfile host="app.diagrams.net" modified="2023-05-09T14:10:03.931Z" agent="Mozilla/5.0 (X11; Ubuntu; Linux x86_64; rv:102.0) Gecko/20100101 Firefox/102.0" etag="hZOV3tcQ36c_t7Sokep8" version="21.2.9" type="device">
  <diagram name="Page-1" id="c7558073-3199-34d8-9f00-42111426c3f3">
    <mxGraphModel dx="2491" dy="1636" grid="1" gridSize="10" guides="1" tooltips="1" connect="1" arrows="1" fold="1" page="1" pageScale="1" pageWidth="826" pageHeight="1169" background="none" math="0" shadow="0">
      <root>
        <mxCell id="0" />
        <mxCell id="1" parent="0" />
        <mxCell id="3kep1P1xeKZw5jxpyF7z-107" value="" style="edgeStyle=orthogonalEdgeStyle;rounded=0;orthogonalLoop=1;jettySize=auto;html=1;strokeWidth=2;strokeColor=#CC0000;" parent="1" source="2" target="3kep1P1xeKZw5jxpyF7z-106" edge="1">
          <mxGeometry relative="1" as="geometry" />
        </mxCell>
        <mxCell id="3kep1P1xeKZw5jxpyF7z-109" value="" style="edgeStyle=orthogonalEdgeStyle;rounded=0;orthogonalLoop=1;jettySize=auto;html=1;exitX=0;exitY=0.25;exitDx=0;exitDy=0;strokeColor=#CC0000;strokeWidth=2;" parent="1" source="2" target="3kep1P1xeKZw5jxpyF7z-108" edge="1">
          <mxGeometry relative="1" as="geometry" />
        </mxCell>
        <mxCell id="3kep1P1xeKZw5jxpyF7z-111" value="" style="edgeStyle=orthogonalEdgeStyle;rounded=0;orthogonalLoop=1;jettySize=auto;html=1;strokeColor=#CC0000;strokeWidth=2;entryX=0.5;entryY=0;entryDx=0;entryDy=0;exitX=0;exitY=0.75;exitDx=0;exitDy=0;" parent="1" source="2" target="3kep1P1xeKZw5jxpyF7z-110" edge="1">
          <mxGeometry relative="1" as="geometry">
            <Array as="points">
              <mxPoint x="-455" y="380" />
            </Array>
          </mxGeometry>
        </mxCell>
        <mxCell id="2" value="&lt;p style=&quot;margin: 0px; margin-top: 4px; text-align: center; text-decoration: underline;&quot;&gt;&lt;strong&gt;MAIN&lt;/strong&gt;&lt;/p&gt;&lt;p style=&quot;margin: 0px; margin-top: 4px; text-align: center; text-decoration: underline;&quot;&gt;&lt;strong&gt;(argc, argv, envp)&lt;br&gt;&lt;/strong&gt;&lt;/p&gt;&lt;div align=&quot;left&quot;&gt;&lt;ul&gt;&lt;li&gt;&lt;strong&gt;the_arg(argc, argv);&lt;/strong&gt;&lt;/li&gt;&lt;li&gt;&lt;strong&gt;init_data(&amp;amp;data, envp);&lt;/strong&gt;&lt;/li&gt;&lt;li&gt;&lt;strong&gt;eternal_loop(&amp;amp;data);&lt;/strong&gt;&lt;br&gt;&lt;/li&gt;&lt;/ul&gt;&lt;/div&gt;" style="verticalAlign=middle;align=center;overflow=fill;fontSize=12;fontFamily=Helvetica;html=1;rounded=1;fontStyle=1;strokeWidth=3;fillColor=#E6FFCC;" parent="1" vertex="1">
          <mxGeometry x="-210" y="290" width="190" height="120" as="geometry" />
        </mxCell>
        <mxCell id="3" value="init_envSom&#xa;()&#xa;malloc t_envSom &#xa;and return back the empty node (t_env)." style="align=center;verticalAlign=top;fontStyle=1;strokeWidth=3;fillColor=#FFFFCC;whiteSpace=wrap;" parent="1" vertex="1">
          <mxGeometry x="-780" y="640" width="170" height="80" as="geometry" />
        </mxCell>
        <mxCell id="sRo3fHuxY35VgkNJXCjk-50" style="edgeStyle=orthogonalEdgeStyle;rounded=0;orthogonalLoop=1;jettySize=auto;html=1;exitX=0;exitY=0.75;exitDx=0;exitDy=0;entryX=0.67;entryY=0;entryDx=0;entryDy=0;entryPerimeter=0;strokeWidth=2;strokeColor=#CC0000;" parent="1" source="3kep1P1xeKZw5jxpyF7z-106" target="w5gB6YBrFvxGbigNmxhe-155" edge="1">
          <mxGeometry relative="1" as="geometry">
            <Array as="points">
              <mxPoint x="24" y="395" />
            </Array>
          </mxGeometry>
        </mxCell>
        <mxCell id="sRo3fHuxY35VgkNJXCjk-52" style="edgeStyle=orthogonalEdgeStyle;rounded=0;orthogonalLoop=1;jettySize=auto;html=1;strokeWidth=2;strokeColor=#CC0000;exitX=0.25;exitY=1;exitDx=0;exitDy=0;" parent="1" source="3kep1P1xeKZw5jxpyF7z-106" target="w5gB6YBrFvxGbigNmxhe-144" edge="1">
          <mxGeometry relative="1" as="geometry">
            <mxPoint x="200" y="450" as="sourcePoint" />
            <Array as="points">
              <mxPoint x="158" y="770" />
              <mxPoint x="30" y="770" />
            </Array>
          </mxGeometry>
        </mxCell>
        <mxCell id="sRo3fHuxY35VgkNJXCjk-54" style="edgeStyle=orthogonalEdgeStyle;rounded=0;orthogonalLoop=1;jettySize=auto;html=1;exitX=1;exitY=0.25;exitDx=0;exitDy=0;entryX=-0.006;entryY=0.409;entryDx=0;entryDy=0;entryPerimeter=0;strokeWidth=2;strokeColor=#CC0000;" parent="1" source="3kep1P1xeKZw5jxpyF7z-106" target="tulZz2T8-PFBjVz8LQCf-19" edge="1">
          <mxGeometry relative="1" as="geometry" />
        </mxCell>
        <mxCell id="sRo3fHuxY35VgkNJXCjk-55" style="edgeStyle=orthogonalEdgeStyle;rounded=0;orthogonalLoop=1;jettySize=auto;html=1;exitX=0.383;exitY=1;exitDx=0;exitDy=0;strokeWidth=2;strokeColor=#CC0000;entryX=0;entryY=0.5;entryDx=0;entryDy=0;exitPerimeter=0;" parent="1" source="3kep1P1xeKZw5jxpyF7z-106" target="w5gB6YBrFvxGbigNmxhe-145" edge="1">
          <mxGeometry relative="1" as="geometry" />
        </mxCell>
        <mxCell id="3kep1P1xeKZw5jxpyF7z-106" value="&lt;p style=&quot;margin: 4px 0px 0px; text-align: center;&quot;&gt;&lt;strong&gt;eternal_loop&lt;/strong&gt;&lt;/p&gt;&lt;p style=&quot;margin: 4px 0px 0px; text-align: center;&quot;&gt;&lt;strong&gt;(*data)&lt;br&gt;&lt;/strong&gt;&lt;/p&gt;&lt;div align=&quot;left&quot;&gt;&lt;ul&gt;&lt;li&gt;&lt;strong&gt;str = &lt;font color=&quot;#009900&quot;&gt;readline(..)&lt;/font&gt;&lt;/strong&gt;&lt;/li&gt;&lt;li&gt;&lt;font color=&quot;#009900&quot;&gt;&lt;strong&gt;add_history(str)&lt;/strong&gt;&lt;/font&gt;&lt;/li&gt;&lt;li&gt;&lt;strong&gt;init_data_cmd(data)&lt;/strong&gt;&lt;/li&gt;&lt;li&gt;&lt;strong&gt;splitOrNot(str, data-&amp;gt;cmd_index)&lt;/strong&gt;&lt;/li&gt;&lt;li&gt;&lt;strong&gt;malloc_all(data)&lt;/strong&gt;&lt;/li&gt;&lt;li&gt;&lt;strong&gt;exec(data-cmdIndex, data-&amp;gt;path_exec, data-&amp;gt;env)&lt;/strong&gt;&lt;/li&gt;&lt;li&gt;&lt;font color=&quot;#009900&quot;&gt;&lt;strong&gt;free(&lt;font color=&quot;#000000&quot;&gt;str&lt;/font&gt;)&lt;/strong&gt;&lt;/font&gt;&lt;br&gt;&lt;/li&gt;&lt;/ul&gt;&lt;/div&gt;" style="verticalAlign=middle;align=center;overflow=fill;fontSize=12;fontFamily=Helvetica;html=1;rounded=1;fontStyle=1;strokeWidth=3;fillColor=#ffcc99;strokeColor=#36393d;" parent="1" vertex="1">
          <mxGeometry x="70" y="260" width="350" height="180" as="geometry" />
        </mxCell>
        <mxCell id="3kep1P1xeKZw5jxpyF7z-108" value="&lt;p style=&quot;margin: 4px 0px 0px; text-align: center;&quot;&gt;&lt;strong&gt;the_arg&lt;/strong&gt;&lt;/p&gt;&lt;p style=&quot;margin: 4px 0px 0px; text-align: center;&quot;&gt;&lt;strong&gt;(argc, argv)&lt;br&gt;&lt;/strong&gt;&lt;/p&gt;&lt;p style=&quot;margin: 4px 0px 0px; text-align: center;&quot;&gt;&lt;strong&gt;&lt;br&gt;&lt;/strong&gt;&lt;/p&gt;&lt;p style=&quot;margin: 0px; margin-top: 4px; text-align: center; text-decoration: underline;&quot;&gt;&lt;span style=&quot;font-weight: normal;&quot;&gt;Arguments check&lt;/span&gt;&lt;br&gt;&lt;strong&gt;&lt;/strong&gt;&lt;/p&gt;" style="verticalAlign=middle;align=center;overflow=fill;fontSize=12;fontFamily=Helvetica;html=1;rounded=1;fontStyle=1;strokeWidth=3;fillColor=#E6FFCC;" parent="1" vertex="1">
          <mxGeometry x="-780" y="420" width="190" height="120" as="geometry" />
        </mxCell>
        <mxCell id="w5gB6YBrFvxGbigNmxhe-103" style="edgeStyle=orthogonalEdgeStyle;rounded=0;orthogonalLoop=1;jettySize=auto;html=1;exitX=0.363;exitY=1.008;exitDx=0;exitDy=0;entryX=0.5;entryY=0;entryDx=0;entryDy=0;exitPerimeter=0;strokeWidth=2;strokeColor=#CC0000;" parent="1" source="3kep1P1xeKZw5jxpyF7z-110" target="w5gB6YBrFvxGbigNmxhe-88" edge="1">
          <mxGeometry relative="1" as="geometry">
            <Array as="points" />
          </mxGeometry>
        </mxCell>
        <mxCell id="w5gB6YBrFvxGbigNmxhe-107" value="" style="edgeStyle=orthogonalEdgeStyle;rounded=0;orthogonalLoop=1;jettySize=auto;html=1;strokeWidth=2;strokeColor=#CC0000;" parent="1" source="3kep1P1xeKZw5jxpyF7z-110" target="w5gB6YBrFvxGbigNmxhe-106" edge="1">
          <mxGeometry relative="1" as="geometry">
            <Array as="points">
              <mxPoint x="-380" y="620" />
              <mxPoint x="-380" y="620" />
            </Array>
          </mxGeometry>
        </mxCell>
        <mxCell id="3kep1P1xeKZw5jxpyF7z-110" value="&lt;p style=&quot;margin: 4px 0px 0px; text-align: center;&quot;&gt;&lt;strong&gt;init_data&lt;/strong&gt;&lt;/p&gt;&lt;p style=&quot;margin: 0px; margin-top: 4px; text-align: center; text-decoration: underline;&quot;&gt;&lt;strong&gt;(*data, **en)&lt;br&gt;&lt;/strong&gt;&lt;/p&gt;&lt;div align=&quot;left&quot;&gt;&lt;ul&gt;&lt;li&gt;&lt;strong&gt;printTitle();&lt;/strong&gt;&lt;/li&gt;&lt;li&gt;&lt;strong&gt;init_envp(en);&lt;/strong&gt;&lt;/li&gt;&lt;li&gt;&lt;strong&gt;signal_handler();&lt;/strong&gt;&lt;/li&gt;&lt;/ul&gt;&lt;/div&gt;" style="verticalAlign=middle;align=center;overflow=fill;fontSize=12;fontFamily=Helvetica;html=1;rounded=1;fontStyle=1;strokeWidth=3;fillColor=#E6FFCC;" parent="1" vertex="1">
          <mxGeometry x="-550" y="420" width="190" height="120" as="geometry" />
        </mxCell>
        <mxCell id="sRo3fHuxY35VgkNJXCjk-36" style="edgeStyle=orthogonalEdgeStyle;rounded=0;orthogonalLoop=1;jettySize=auto;html=1;exitX=0;exitY=0.5;exitDx=0;exitDy=0;entryX=1;entryY=0.5;entryDx=0;entryDy=0;strokeWidth=2;strokeColor=#CC0000;" parent="1" source="w5gB6YBrFvxGbigNmxhe-88" target="3" edge="1">
          <mxGeometry relative="1" as="geometry" />
        </mxCell>
        <mxCell id="sRo3fHuxY35VgkNJXCjk-37" style="edgeStyle=orthogonalEdgeStyle;rounded=0;orthogonalLoop=1;jettySize=auto;html=1;exitX=0;exitY=0.5;exitDx=0;exitDy=0;entryX=1;entryY=0.5;entryDx=0;entryDy=0;strokeWidth=2;strokeColor=#CC0000;" parent="1" source="w5gB6YBrFvxGbigNmxhe-88" target="w5gB6YBrFvxGbigNmxhe-93" edge="1">
          <mxGeometry relative="1" as="geometry" />
        </mxCell>
        <mxCell id="sRo3fHuxY35VgkNJXCjk-38" style="edgeStyle=orthogonalEdgeStyle;rounded=0;orthogonalLoop=1;jettySize=auto;html=1;exitX=0;exitY=0.5;exitDx=0;exitDy=0;entryX=1;entryY=0.5;entryDx=0;entryDy=0;strokeWidth=2;strokeColor=#CC0000;" parent="1" source="w5gB6YBrFvxGbigNmxhe-88" target="w5gB6YBrFvxGbigNmxhe-95" edge="1">
          <mxGeometry relative="1" as="geometry" />
        </mxCell>
        <mxCell id="w5gB6YBrFvxGbigNmxhe-88" value="&lt;p style=&quot;margin: 0px; margin-top: 4px; text-align: center; text-decoration: underline;&quot;&gt;&lt;strong&gt;init_envp&lt;/strong&gt;&lt;/p&gt;&lt;p style=&quot;margin: 0px; margin-top: 4px; text-align: center; text-decoration: underline;&quot;&gt;&lt;strong&gt;(*envp)&lt;/strong&gt;&lt;br&gt;&lt;/p&gt;&lt;div align=&quot;left&quot;&gt;&lt;ul&gt;&lt;li&gt;&lt;strong&gt;init_envSom();&lt;/strong&gt;&lt;/li&gt;&lt;li&gt;&lt;strong&gt;push_env(envp[i], env);&lt;/strong&gt;&lt;/li&gt;&lt;li&gt;change_pwd(env);&lt;br&gt;&lt;/li&gt;&lt;/ul&gt;&lt;/div&gt;" style="verticalAlign=middle;align=center;overflow=fill;fontSize=12;fontFamily=Helvetica;html=1;rounded=1;fontStyle=1;strokeWidth=3;fillColor=#E6FFCC;" parent="1" vertex="1">
          <mxGeometry x="-570" y="580" width="178" height="105" as="geometry" />
        </mxCell>
        <mxCell id="w5gB6YBrFvxGbigNmxhe-93" value="push_env&#xa;(*envp, env)&#xa;&#xa;malloc t_env and save envp in the given node. &#xa;Adding the node to the list.&#xa;increment list size.&#xa;" style="align=center;verticalAlign=top;fontStyle=1;strokeWidth=3;fillColor=#FFFFCC;whiteSpace=wrap;" parent="1" vertex="1">
          <mxGeometry x="-780" y="730" width="170" height="105" as="geometry" />
        </mxCell>
        <mxCell id="w5gB6YBrFvxGbigNmxhe-95" value="change_pwd&#xa;(*env)&#xa;&#xa;Searching for &quot;PWD&quot; line in the list and replacing the value with current env path with getcwd();&#xa;&#xa;" style="align=center;verticalAlign=top;fontStyle=1;strokeWidth=3;fillColor=#FFFFCC;whiteSpace=wrap;" parent="1" vertex="1">
          <mxGeometry x="-780" y="850" width="170" height="110" as="geometry" />
        </mxCell>
        <mxCell id="w5gB6YBrFvxGbigNmxhe-101" value="change_pwd&#xa;(*env)&#xa;&#xa;Searching for &quot;OLDPWD&quot; in the list and replacing the value with strjoin -ing the received oldpwd.&#xa;adding new node if not exist.&#xa;&#xa;&#xa;" style="align=center;verticalAlign=top;fontStyle=1;strokeWidth=3;fillColor=#FFFFCC;whiteSpace=wrap;" parent="1" vertex="1">
          <mxGeometry x="-780" y="1050" width="170" height="130" as="geometry" />
        </mxCell>
        <mxCell id="w5gB6YBrFvxGbigNmxhe-106" value="&lt;p style=&quot;margin: 4px 0px 0px; text-align: center;&quot;&gt;&lt;strong&gt;signal_handler&lt;/strong&gt;&lt;/p&gt;&lt;p style=&quot;margin: 4px 0px 0px; text-align: center;&quot;&gt;&lt;strong&gt;&lt;font color=&quot;#009900&quot;&gt;signal(..)&lt;/font&gt;&lt;br&gt;&lt;/strong&gt;&lt;/p&gt;&lt;div align=&quot;left&quot;&gt;&lt;ul&gt;&lt;li&gt;&lt;strong&gt;newline();&lt;/strong&gt;&lt;/li&gt;&lt;li&gt;&lt;strong&gt;sigint_handler(sig);&lt;/strong&gt;&lt;/li&gt;&lt;li&gt;&lt;strong&gt;sigquit_handler(sig);&lt;/strong&gt;&lt;/li&gt;&lt;/ul&gt;&lt;/div&gt;" style="verticalAlign=middle;align=center;overflow=fill;fontSize=12;fontFamily=Helvetica;html=1;rounded=1;fontStyle=1;strokeWidth=3;fillColor=#E6FFCC;" parent="1" vertex="1">
          <mxGeometry x="-520" y="700" width="170" height="100" as="geometry" />
        </mxCell>
        <mxCell id="w5gB6YBrFvxGbigNmxhe-109" value="&lt;b&gt;t_env&lt;/b&gt;" style="swimlane;fontStyle=0;childLayout=stackLayout;horizontal=1;startSize=30;horizontalStack=0;resizeParent=1;resizeParentMax=0;resizeLast=0;collapsible=1;marginBottom=0;whiteSpace=wrap;html=1;fillColor=#ffe6cc;strokeColor=#d79b00;" parent="1" vertex="1">
          <mxGeometry x="-530" y="40" width="130" height="120" as="geometry">
            <mxRectangle x="80" y="690" width="60" height="30" as="alternateBounds" />
          </mxGeometry>
        </mxCell>
        <mxCell id="w5gB6YBrFvxGbigNmxhe-110" value="char&lt;span style=&quot;white-space: pre;&quot;&gt; &lt;span style=&quot;white-space: pre;&quot;&gt; &lt;/span&gt;&lt;/span&gt;*name" style="text;strokeColor=#d6b656;fillColor=#fff2cc;align=left;verticalAlign=middle;spacingLeft=4;spacingRight=4;overflow=hidden;points=[[0,0.5],[1,0.5]];portConstraint=eastwest;rotatable=0;whiteSpace=wrap;html=1;" parent="w5gB6YBrFvxGbigNmxhe-109" vertex="1">
          <mxGeometry y="30" width="130" height="30" as="geometry" />
        </mxCell>
        <mxCell id="w5gB6YBrFvxGbigNmxhe-111" value="s_env&lt;span style=&quot;white-space: pre;&quot;&gt; &lt;/span&gt;*next" style="text;strokeColor=#d6b656;fillColor=#fff2cc;align=left;verticalAlign=middle;spacingLeft=4;spacingRight=4;overflow=hidden;points=[[0,0.5],[1,0.5]];portConstraint=eastwest;rotatable=0;whiteSpace=wrap;html=1;" parent="w5gB6YBrFvxGbigNmxhe-109" vertex="1">
          <mxGeometry y="60" width="130" height="30" as="geometry" />
        </mxCell>
        <mxCell id="w5gB6YBrFvxGbigNmxhe-112" value="s_env&lt;span style=&quot;white-space: pre;&quot;&gt; &lt;/span&gt;*back" style="text;strokeColor=#d6b656;fillColor=#fff2cc;align=left;verticalAlign=middle;spacingLeft=4;spacingRight=4;overflow=hidden;points=[[0,0.5],[1,0.5]];portConstraint=eastwest;rotatable=0;whiteSpace=wrap;html=1;" parent="w5gB6YBrFvxGbigNmxhe-109" vertex="1">
          <mxGeometry y="90" width="130" height="30" as="geometry" />
        </mxCell>
        <mxCell id="w5gB6YBrFvxGbigNmxhe-113" value="&lt;b&gt;t_envSom&lt;/b&gt;" style="swimlane;fontStyle=0;childLayout=stackLayout;horizontal=1;startSize=30;horizontalStack=0;resizeParent=1;resizeParentMax=0;resizeLast=0;collapsible=1;marginBottom=0;whiteSpace=wrap;html=1;fillColor=#ffe6cc;strokeColor=#d79b00;" parent="1" vertex="1">
          <mxGeometry x="-380" y="40" width="130" height="120" as="geometry">
            <mxRectangle x="80" y="690" width="60" height="30" as="alternateBounds" />
          </mxGeometry>
        </mxCell>
        <mxCell id="w5gB6YBrFvxGbigNmxhe-114" value="int&lt;span style=&quot;white-space: pre;&quot;&gt; &lt;span style=&quot;white-space: pre;&quot;&gt; &lt;/span&gt;&lt;/span&gt;size" style="text;strokeColor=#d6b656;fillColor=#fff2cc;align=left;verticalAlign=middle;spacingLeft=4;spacingRight=4;overflow=hidden;points=[[0,0.5],[1,0.5]];portConstraint=eastwest;rotatable=0;whiteSpace=wrap;html=1;" parent="w5gB6YBrFvxGbigNmxhe-113" vertex="1">
          <mxGeometry y="30" width="130" height="30" as="geometry" />
        </mxCell>
        <mxCell id="w5gB6YBrFvxGbigNmxhe-115" value="s_env&lt;span style=&quot;white-space: pre;&quot;&gt; &lt;/span&gt;*begin" style="text;strokeColor=#d6b656;fillColor=#fff2cc;align=left;verticalAlign=middle;spacingLeft=4;spacingRight=4;overflow=hidden;points=[[0,0.5],[1,0.5]];portConstraint=eastwest;rotatable=0;whiteSpace=wrap;html=1;" parent="w5gB6YBrFvxGbigNmxhe-113" vertex="1">
          <mxGeometry y="60" width="130" height="30" as="geometry" />
        </mxCell>
        <mxCell id="w5gB6YBrFvxGbigNmxhe-116" value="s_env&lt;span style=&quot;white-space: pre;&quot;&gt; &lt;/span&gt;*end" style="text;strokeColor=#d6b656;fillColor=#fff2cc;align=left;verticalAlign=middle;spacingLeft=4;spacingRight=4;overflow=hidden;points=[[0,0.5],[1,0.5]];portConstraint=eastwest;rotatable=0;whiteSpace=wrap;html=1;" parent="w5gB6YBrFvxGbigNmxhe-113" vertex="1">
          <mxGeometry y="90" width="130" height="30" as="geometry" />
        </mxCell>
        <mxCell id="w5gB6YBrFvxGbigNmxhe-117" value="&lt;b&gt;t_cmdIndex&lt;/b&gt;" style="swimlane;fontStyle=0;childLayout=stackLayout;horizontal=1;startSize=30;horizontalStack=0;resizeParent=1;resizeParentMax=0;resizeLast=0;collapsible=1;marginBottom=0;whiteSpace=wrap;html=1;fillColor=#ffe6cc;strokeColor=#d79b00;" parent="1" vertex="1">
          <mxGeometry x="-230" y="40" width="130" height="150" as="geometry">
            <mxRectangle x="80" y="690" width="60" height="30" as="alternateBounds" />
          </mxGeometry>
        </mxCell>
        <mxCell id="w5gB6YBrFvxGbigNmxhe-118" value="int&lt;span style=&quot;white-space: pre;&quot;&gt; &lt;span style=&quot;white-space: pre;&quot;&gt; &lt;/span&gt;&lt;/span&gt;nb_cmd" style="text;strokeColor=#d6b656;fillColor=#fff2cc;align=left;verticalAlign=middle;spacingLeft=4;spacingRight=4;overflow=hidden;points=[[0,0.5],[1,0.5]];portConstraint=eastwest;rotatable=0;whiteSpace=wrap;html=1;" parent="w5gB6YBrFvxGbigNmxhe-117" vertex="1">
          <mxGeometry y="30" width="130" height="30" as="geometry" />
        </mxCell>
        <mxCell id="w5gB6YBrFvxGbigNmxhe-119" value="int&lt;span style=&quot;white-space: pre;&quot;&gt; &lt;/span&gt;&lt;span style=&quot;white-space: pre;&quot;&gt; &lt;/span&gt;nb_pipe" style="text;strokeColor=#d6b656;fillColor=#fff2cc;align=left;verticalAlign=middle;spacingLeft=4;spacingRight=4;overflow=hidden;points=[[0,0.5],[1,0.5]];portConstraint=eastwest;rotatable=0;whiteSpace=wrap;html=1;" parent="w5gB6YBrFvxGbigNmxhe-117" vertex="1">
          <mxGeometry y="60" width="130" height="30" as="geometry" />
        </mxCell>
        <mxCell id="w5gB6YBrFvxGbigNmxhe-120" value="s_cmd&lt;span style=&quot;white-space: pre;&quot;&gt; &lt;/span&gt;*begin" style="text;strokeColor=#d6b656;fillColor=#fff2cc;align=left;verticalAlign=middle;spacingLeft=4;spacingRight=4;overflow=hidden;points=[[0,0.5],[1,0.5]];portConstraint=eastwest;rotatable=0;whiteSpace=wrap;html=1;" parent="w5gB6YBrFvxGbigNmxhe-117" vertex="1">
          <mxGeometry y="90" width="130" height="30" as="geometry" />
        </mxCell>
        <mxCell id="w5gB6YBrFvxGbigNmxhe-121" value="s_cmd&lt;span style=&quot;white-space: pre;&quot;&gt; &lt;/span&gt;*end" style="text;strokeColor=#d6b656;fillColor=#fff2cc;align=left;verticalAlign=middle;spacingLeft=4;spacingRight=4;overflow=hidden;points=[[0,0.5],[1,0.5]];portConstraint=eastwest;rotatable=0;whiteSpace=wrap;html=1;" parent="w5gB6YBrFvxGbigNmxhe-117" vertex="1">
          <mxGeometry y="120" width="130" height="30" as="geometry" />
        </mxCell>
        <mxCell id="w5gB6YBrFvxGbigNmxhe-122" value="&lt;b&gt;t_cmd&lt;/b&gt;" style="swimlane;fontStyle=0;childLayout=stackLayout;horizontal=1;startSize=30;horizontalStack=0;resizeParent=1;resizeParentMax=0;resizeLast=0;collapsible=1;marginBottom=0;whiteSpace=wrap;html=1;fillColor=#ffe6cc;strokeColor=#d79b00;" parent="1" vertex="1">
          <mxGeometry x="-80" y="40" width="130" height="180" as="geometry">
            <mxRectangle x="80" y="690" width="60" height="30" as="alternateBounds" />
          </mxGeometry>
        </mxCell>
        <mxCell id="w5gB6YBrFvxGbigNmxhe-127" value="char&lt;span style=&quot;white-space: pre;&quot;&gt; &lt;/span&gt;&lt;span style=&quot;white-space: pre;&quot;&gt; &lt;/span&gt;*cmd" style="text;strokeColor=#d6b656;fillColor=#fff2cc;align=left;verticalAlign=middle;spacingLeft=4;spacingRight=4;overflow=hidden;points=[[0,0.5],[1,0.5]];portConstraint=eastwest;rotatable=0;whiteSpace=wrap;html=1;" parent="w5gB6YBrFvxGbigNmxhe-122" vertex="1">
          <mxGeometry y="30" width="130" height="30" as="geometry" />
        </mxCell>
        <mxCell id="w5gB6YBrFvxGbigNmxhe-123" value="bool&lt;span style=&quot;white-space: pre;&quot;&gt; &lt;/span&gt;&lt;span style=&quot;white-space: pre;&quot;&gt; &lt;/span&gt;redir&lt;span style=&quot;white-space: pre;&quot;&gt; &lt;/span&gt;" style="text;strokeColor=#d6b656;fillColor=#fff2cc;align=left;verticalAlign=middle;spacingLeft=4;spacingRight=4;overflow=hidden;points=[[0,0.5],[1,0.5]];portConstraint=eastwest;rotatable=0;whiteSpace=wrap;html=1;" parent="w5gB6YBrFvxGbigNmxhe-122" vertex="1">
          <mxGeometry y="60" width="130" height="30" as="geometry" />
        </mxCell>
        <mxCell id="w5gB6YBrFvxGbigNmxhe-124" value="s_redirIndex&lt;span style=&quot;white-space: pre;&quot;&gt; &lt;/span&gt;*lredir&lt;span style=&quot;white-space: pre;&quot;&gt; &lt;/span&gt;" style="text;strokeColor=#d6b656;fillColor=#fff2cc;align=left;verticalAlign=middle;spacingLeft=4;spacingRight=4;overflow=hidden;points=[[0,0.5],[1,0.5]];portConstraint=eastwest;rotatable=0;whiteSpace=wrap;html=1;" parent="w5gB6YBrFvxGbigNmxhe-122" vertex="1">
          <mxGeometry y="90" width="130" height="30" as="geometry" />
        </mxCell>
        <mxCell id="w5gB6YBrFvxGbigNmxhe-125" value="s_cmd&lt;span style=&quot;white-space: pre;&quot;&gt; &lt;/span&gt;*next" style="text;strokeColor=#d6b656;fillColor=#fff2cc;align=left;verticalAlign=middle;spacingLeft=4;spacingRight=4;overflow=hidden;points=[[0,0.5],[1,0.5]];portConstraint=eastwest;rotatable=0;whiteSpace=wrap;html=1;" parent="w5gB6YBrFvxGbigNmxhe-122" vertex="1">
          <mxGeometry y="120" width="130" height="30" as="geometry" />
        </mxCell>
        <mxCell id="w5gB6YBrFvxGbigNmxhe-126" value="s_cmd&lt;span style=&quot;white-space: pre;&quot;&gt; &lt;/span&gt;*back" style="text;strokeColor=#d6b656;fillColor=#fff2cc;align=left;verticalAlign=middle;spacingLeft=4;spacingRight=4;overflow=hidden;points=[[0,0.5],[1,0.5]];portConstraint=eastwest;rotatable=0;whiteSpace=wrap;html=1;" parent="w5gB6YBrFvxGbigNmxhe-122" vertex="1">
          <mxGeometry y="150" width="130" height="30" as="geometry" />
        </mxCell>
        <mxCell id="w5gB6YBrFvxGbigNmxhe-128" value="&lt;b&gt;t_redirIndex&lt;/b&gt;" style="swimlane;fontStyle=0;childLayout=stackLayout;horizontal=1;startSize=30;horizontalStack=0;resizeParent=1;resizeParentMax=0;resizeLast=0;collapsible=1;marginBottom=0;whiteSpace=wrap;html=1;fillColor=#ffe6cc;strokeColor=#d79b00;" parent="1" vertex="1">
          <mxGeometry x="70" y="40" width="130" height="120" as="geometry">
            <mxRectangle x="80" y="690" width="60" height="30" as="alternateBounds" />
          </mxGeometry>
        </mxCell>
        <mxCell id="w5gB6YBrFvxGbigNmxhe-129" value="int&lt;span style=&quot;white-space: pre;&quot;&gt; &lt;span style=&quot;white-space: pre;&quot;&gt; &lt;/span&gt;&lt;/span&gt;size" style="text;strokeColor=#d6b656;fillColor=#fff2cc;align=left;verticalAlign=middle;spacingLeft=4;spacingRight=4;overflow=hidden;points=[[0,0.5],[1,0.5]];portConstraint=eastwest;rotatable=0;whiteSpace=wrap;html=1;" parent="w5gB6YBrFvxGbigNmxhe-128" vertex="1">
          <mxGeometry y="30" width="130" height="30" as="geometry" />
        </mxCell>
        <mxCell id="w5gB6YBrFvxGbigNmxhe-130" value="s_redir&lt;span style=&quot;white-space: pre;&quot;&gt; &lt;/span&gt;*begin" style="text;strokeColor=#d6b656;fillColor=#fff2cc;align=left;verticalAlign=middle;spacingLeft=4;spacingRight=4;overflow=hidden;points=[[0,0.5],[1,0.5]];portConstraint=eastwest;rotatable=0;whiteSpace=wrap;html=1;" parent="w5gB6YBrFvxGbigNmxhe-128" vertex="1">
          <mxGeometry y="60" width="130" height="30" as="geometry" />
        </mxCell>
        <mxCell id="w5gB6YBrFvxGbigNmxhe-131" value="s_redir&lt;span style=&quot;white-space: pre;&quot;&gt; &lt;/span&gt;*end" style="text;strokeColor=#d6b656;fillColor=#fff2cc;align=left;verticalAlign=middle;spacingLeft=4;spacingRight=4;overflow=hidden;points=[[0,0.5],[1,0.5]];portConstraint=eastwest;rotatable=0;whiteSpace=wrap;html=1;" parent="w5gB6YBrFvxGbigNmxhe-128" vertex="1">
          <mxGeometry y="90" width="130" height="30" as="geometry" />
        </mxCell>
        <mxCell id="w5gB6YBrFvxGbigNmxhe-132" value="&lt;b&gt;t_redir&lt;/b&gt;" style="swimlane;fontStyle=0;childLayout=stackLayout;horizontal=1;startSize=30;horizontalStack=0;resizeParent=1;resizeParentMax=0;resizeLast=0;collapsible=1;marginBottom=0;whiteSpace=wrap;html=1;fillColor=#ffe6cc;strokeColor=#d79b00;" parent="1" vertex="1">
          <mxGeometry x="220" y="40" width="130" height="150" as="geometry">
            <mxRectangle x="80" y="690" width="60" height="30" as="alternateBounds" />
          </mxGeometry>
        </mxCell>
        <mxCell id="w5gB6YBrFvxGbigNmxhe-133" value="int&lt;span style=&quot;white-space: pre;&quot;&gt; &lt;span style=&quot;white-space: pre;&quot;&gt; &lt;/span&gt;&lt;/span&gt;type" style="text;strokeColor=#d6b656;fillColor=#fff2cc;align=left;verticalAlign=middle;spacingLeft=4;spacingRight=4;overflow=hidden;points=[[0,0.5],[1,0.5]];portConstraint=eastwest;rotatable=0;whiteSpace=wrap;html=1;" parent="w5gB6YBrFvxGbigNmxhe-132" vertex="1">
          <mxGeometry y="30" width="130" height="30" as="geometry" />
        </mxCell>
        <mxCell id="w5gB6YBrFvxGbigNmxhe-136" value="char&lt;span style=&quot;white-space: pre;&quot;&gt; &lt;/span&gt;&lt;span style=&quot;white-space: pre;&quot;&gt; &lt;/span&gt;*file" style="text;strokeColor=#d6b656;fillColor=#fff2cc;align=left;verticalAlign=middle;spacingLeft=4;spacingRight=4;overflow=hidden;points=[[0,0.5],[1,0.5]];portConstraint=eastwest;rotatable=0;whiteSpace=wrap;html=1;" parent="w5gB6YBrFvxGbigNmxhe-132" vertex="1">
          <mxGeometry y="60" width="130" height="30" as="geometry" />
        </mxCell>
        <mxCell id="w5gB6YBrFvxGbigNmxhe-134" value="s_redir&lt;span style=&quot;white-space: pre;&quot;&gt; &lt;/span&gt;*next" style="text;strokeColor=#d6b656;fillColor=#fff2cc;align=left;verticalAlign=middle;spacingLeft=4;spacingRight=4;overflow=hidden;points=[[0,0.5],[1,0.5]];portConstraint=eastwest;rotatable=0;whiteSpace=wrap;html=1;" parent="w5gB6YBrFvxGbigNmxhe-132" vertex="1">
          <mxGeometry y="90" width="130" height="30" as="geometry" />
        </mxCell>
        <mxCell id="w5gB6YBrFvxGbigNmxhe-135" value="s_redir&lt;span style=&quot;white-space: pre;&quot;&gt; &lt;/span&gt;*back" style="text;strokeColor=#d6b656;fillColor=#fff2cc;align=left;verticalAlign=middle;spacingLeft=4;spacingRight=4;overflow=hidden;points=[[0,0.5],[1,0.5]];portConstraint=eastwest;rotatable=0;whiteSpace=wrap;html=1;" parent="w5gB6YBrFvxGbigNmxhe-132" vertex="1">
          <mxGeometry y="120" width="130" height="30" as="geometry" />
        </mxCell>
        <mxCell id="w5gB6YBrFvxGbigNmxhe-137" value="&lt;b&gt;t_data&lt;/b&gt;" style="swimlane;fontStyle=0;childLayout=stackLayout;horizontal=1;startSize=30;horizontalStack=0;resizeParent=1;resizeParentMax=0;resizeLast=0;collapsible=1;marginBottom=0;whiteSpace=wrap;html=1;fillColor=#ffe6cc;strokeColor=#d79b00;" parent="1" vertex="1">
          <mxGeometry x="370" y="40" width="130" height="150" as="geometry">
            <mxRectangle x="80" y="690" width="60" height="30" as="alternateBounds" />
          </mxGeometry>
        </mxCell>
        <mxCell id="w5gB6YBrFvxGbigNmxhe-138" value="char&lt;span style=&quot;white-space: pre;&quot;&gt; &lt;span style=&quot;white-space: pre;&quot;&gt; &lt;/span&gt;&lt;/span&gt;**envp" style="text;strokeColor=#d6b656;fillColor=#fff2cc;align=left;verticalAlign=middle;spacingLeft=4;spacingRight=4;overflow=hidden;points=[[0,0.5],[1,0.5]];portConstraint=eastwest;rotatable=0;whiteSpace=wrap;html=1;" parent="w5gB6YBrFvxGbigNmxhe-137" vertex="1">
          <mxGeometry y="30" width="130" height="30" as="geometry" />
        </mxCell>
        <mxCell id="w5gB6YBrFvxGbigNmxhe-139" value="t_envSom *env" style="text;strokeColor=#d6b656;fillColor=#fff2cc;align=left;verticalAlign=middle;spacingLeft=4;spacingRight=4;overflow=hidden;points=[[0,0.5],[1,0.5]];portConstraint=eastwest;rotatable=0;whiteSpace=wrap;html=1;" parent="w5gB6YBrFvxGbigNmxhe-137" vertex="1">
          <mxGeometry y="60" width="130" height="30" as="geometry" />
        </mxCell>
        <mxCell id="w5gB6YBrFvxGbigNmxhe-140" value="t_cmdInd *cmdIndex" style="text;strokeColor=#d6b656;fillColor=#fff2cc;align=left;verticalAlign=middle;spacingLeft=4;spacingRight=4;overflow=hidden;points=[[0,0.5],[1,0.5]];portConstraint=eastwest;rotatable=0;whiteSpace=wrap;html=1;" parent="w5gB6YBrFvxGbigNmxhe-137" vertex="1">
          <mxGeometry y="90" width="130" height="30" as="geometry" />
        </mxCell>
        <mxCell id="w5gB6YBrFvxGbigNmxhe-141" value="char&lt;span style=&quot;white-space: pre;&quot;&gt; &lt;/span&gt;&lt;span style=&quot;white-space: pre;&quot;&gt; &lt;/span&gt;**path_exec" style="text;strokeColor=#d6b656;fillColor=#fff2cc;align=left;verticalAlign=middle;spacingLeft=4;spacingRight=4;overflow=hidden;points=[[0,0.5],[1,0.5]];portConstraint=eastwest;rotatable=0;whiteSpace=wrap;html=1;" parent="w5gB6YBrFvxGbigNmxhe-137" vertex="1">
          <mxGeometry y="120" width="130" height="30" as="geometry" />
        </mxCell>
        <mxCell id="sRo3fHuxY35VgkNJXCjk-35" value="" style="group" parent="1" vertex="1" connectable="0">
          <mxGeometry x="-280" y="800" width="617" height="640" as="geometry" />
        </mxCell>
        <mxCell id="w5gB6YBrFvxGbigNmxhe-144" value="&lt;p style=&quot;margin: 4px 0px 0px; text-align: center;&quot;&gt;&lt;strong&gt;malloc_all&lt;/strong&gt;&lt;/p&gt;&lt;p style=&quot;margin: 4px 0px 0px; text-align: center;&quot;&gt;&lt;strong&gt;(*data)&lt;br&gt;&lt;/strong&gt;&lt;/p&gt;&lt;div align=&quot;left&quot;&gt;&lt;ul&gt;&lt;li&gt;&lt;strong&gt;redirOrNot(data-&amp;gt;cmdIndex)&lt;/strong&gt;&lt;/li&gt;&lt;li&gt;&lt;strong&gt;initRedirOrNot(d-&amp;gt;cmdIndex)&lt;/strong&gt;&lt;/li&gt;&lt;li&gt;&lt;strong&gt;malloc_redir(data)&lt;/strong&gt;&lt;/li&gt;&lt;/ul&gt;&lt;/div&gt;" style="verticalAlign=middle;align=center;overflow=fill;fontSize=12;fontFamily=Helvetica;html=1;rounded=1;fontStyle=1;strokeWidth=3;fillColor=#ffcccc;strokeColor=#36393d;" parent="sRo3fHuxY35VgkNJXCjk-35" vertex="1">
          <mxGeometry x="200" width="220" height="120" as="geometry" />
        </mxCell>
        <mxCell id="sRo3fHuxY35VgkNJXCjk-25" value="" style="group" parent="sRo3fHuxY35VgkNJXCjk-35" vertex="1" connectable="0">
          <mxGeometry width="170" height="245" as="geometry" />
        </mxCell>
        <mxCell id="5Ly4zNOEhAWGRDg__PcL-31" value="&lt;p style=&quot;margin: 4px 0px 0px; text-align: center;&quot;&gt;&lt;strong&gt;redirOrNot&lt;/strong&gt;&lt;/p&gt;&lt;p style=&quot;margin: 4px 0px 0px; text-align: center;&quot;&gt;&lt;strong&gt;(*index)&lt;/strong&gt;&lt;/p&gt;&lt;div align=&quot;left&quot;&gt;&lt;ul&gt;&lt;li&gt;&lt;strong&gt;lookIfRedir(cmd)&lt;/strong&gt;&lt;/li&gt;&lt;/ul&gt;&lt;/div&gt;" style="verticalAlign=middle;align=center;overflow=fill;fontSize=12;fontFamily=Helvetica;html=1;rounded=1;fontStyle=1;strokeWidth=3;fillColor=#ffcccc;strokeColor=#36393d;" parent="sRo3fHuxY35VgkNJXCjk-25" vertex="1">
          <mxGeometry x="2.5" y="75" width="165" height="75" as="geometry" />
        </mxCell>
        <mxCell id="5Ly4zNOEhAWGRDg__PcL-32" value="Here we iterate through &lt;b&gt;t_cmd&lt;/b&gt; list and set &#39;&lt;b&gt;redir&lt;/b&gt;&#39; value in each node based on the return value from &lt;b&gt;lookIfRedir()&lt;/b&gt;" style="shape=callout;whiteSpace=wrap;html=1;perimeter=calloutPerimeter;position2=0.18;base=10;size=15;position=0.1;" parent="sRo3fHuxY35VgkNJXCjk-25" vertex="1">
          <mxGeometry width="170" height="75" as="geometry" />
        </mxCell>
        <mxCell id="5Ly4zNOEhAWGRDg__PcL-30" value="lookIfRedir&#xa;(*line)&#xa;we search for &#39;&lt;&#39;, &#39;&gt;&#39;, &#39;&lt;&lt;&#39; or &#39;&gt;&gt;&#39;&#xa;&#xa;&#xa;&#xa;&#xa;" style="align=center;verticalAlign=top;fontStyle=1;strokeWidth=3;fillColor=#FFFFCC;whiteSpace=wrap;" parent="sRo3fHuxY35VgkNJXCjk-25" vertex="1">
          <mxGeometry x="20" y="175" width="130" height="70" as="geometry" />
        </mxCell>
        <mxCell id="5Ly4zNOEhAWGRDg__PcL-34" style="edgeStyle=orthogonalEdgeStyle;rounded=0;orthogonalLoop=1;jettySize=auto;html=1;exitX=0.5;exitY=1;exitDx=0;exitDy=0;entryX=0.5;entryY=0;entryDx=0;entryDy=0;strokeWidth=2;strokeColor=#CC0000;" parent="sRo3fHuxY35VgkNJXCjk-25" source="5Ly4zNOEhAWGRDg__PcL-31" target="5Ly4zNOEhAWGRDg__PcL-30" edge="1">
          <mxGeometry relative="1" as="geometry" />
        </mxCell>
        <mxCell id="sRo3fHuxY35VgkNJXCjk-33" style="edgeStyle=orthogonalEdgeStyle;rounded=0;orthogonalLoop=1;jettySize=auto;html=1;exitX=0;exitY=0.5;exitDx=0;exitDy=0;entryX=1;entryY=0.5;entryDx=0;entryDy=0;strokeWidth=2;strokeColor=#CC0000;" parent="sRo3fHuxY35VgkNJXCjk-35" source="w5gB6YBrFvxGbigNmxhe-144" target="5Ly4zNOEhAWGRDg__PcL-31" edge="1">
          <mxGeometry relative="1" as="geometry">
            <Array as="points">
              <mxPoint x="190" y="60" />
              <mxPoint x="190" y="113" />
            </Array>
          </mxGeometry>
        </mxCell>
        <mxCell id="sRo3fHuxY35VgkNJXCjk-30" value="" style="group" parent="sRo3fHuxY35VgkNJXCjk-35" vertex="1" connectable="0">
          <mxGeometry x="450" width="167" height="245" as="geometry" />
        </mxCell>
        <mxCell id="5Ly4zNOEhAWGRDg__PcL-36" value="&lt;p style=&quot;margin: 4px 0px 0px; text-align: center;&quot;&gt;&lt;strong&gt;initRedirOrNot&lt;/strong&gt;&lt;/p&gt;&lt;p style=&quot;margin: 4px 0px 0px; text-align: center;&quot;&gt;&lt;strong&gt;(*index)&lt;/strong&gt;&lt;/p&gt;&lt;div align=&quot;left&quot;&gt;&lt;ul&gt;&lt;li&gt;&lt;strong&gt;init_redirI()&lt;/strong&gt;&lt;/li&gt;&lt;/ul&gt;&lt;/div&gt;" style="verticalAlign=middle;align=center;overflow=fill;fontSize=12;fontFamily=Helvetica;html=1;rounded=1;fontStyle=1;strokeWidth=3;fillColor=#ffcccc;strokeColor=#36393d;" parent="sRo3fHuxY35VgkNJXCjk-30" vertex="1">
          <mxGeometry y="80" width="165" height="70" as="geometry" />
        </mxCell>
        <mxCell id="5Ly4zNOEhAWGRDg__PcL-37" value="init_redirI&#xa;()&#xa;malloc t_redirIndex and return an empty node&#xa;&#xa;&#xa;&#xa;&#xa;&#xa;" style="align=center;verticalAlign=top;fontStyle=1;strokeWidth=3;fillColor=#FFFFCC;whiteSpace=wrap;" parent="sRo3fHuxY35VgkNJXCjk-30" vertex="1">
          <mxGeometry x="12.5" y="175" width="140" height="70" as="geometry" />
        </mxCell>
        <mxCell id="sRo3fHuxY35VgkNJXCjk-29" style="edgeStyle=orthogonalEdgeStyle;rounded=0;orthogonalLoop=1;jettySize=auto;html=1;exitX=0.5;exitY=1;exitDx=0;exitDy=0;entryX=0.5;entryY=0;entryDx=0;entryDy=0;strokeWidth=2;strokeColor=#CC0000;" parent="sRo3fHuxY35VgkNJXCjk-30" source="5Ly4zNOEhAWGRDg__PcL-36" target="5Ly4zNOEhAWGRDg__PcL-37" edge="1">
          <mxGeometry relative="1" as="geometry" />
        </mxCell>
        <mxCell id="sRo3fHuxY35VgkNJXCjk-3" value="&lt;div&gt;going through &lt;b&gt;t_cmd&lt;/b&gt; list and check for &#39;&lt;b&gt;redir&lt;/b&gt;&#39; value in each node. If true call &lt;b&gt;init_redirl()&lt;/b&gt;&lt;br&gt;&lt;/div&gt;" style="shape=callout;whiteSpace=wrap;html=1;perimeter=calloutPerimeter;position2=0.86;base=9;size=15;position=0.86;" parent="sRo3fHuxY35VgkNJXCjk-30" vertex="1">
          <mxGeometry width="167" height="79" as="geometry" />
        </mxCell>
        <mxCell id="sRo3fHuxY35VgkNJXCjk-32" style="edgeStyle=orthogonalEdgeStyle;rounded=0;orthogonalLoop=1;jettySize=auto;html=1;exitX=1;exitY=0.5;exitDx=0;exitDy=0;entryX=0;entryY=0.5;entryDx=0;entryDy=0;strokeWidth=2;strokeColor=#CC0000;" parent="sRo3fHuxY35VgkNJXCjk-35" source="w5gB6YBrFvxGbigNmxhe-144" target="5Ly4zNOEhAWGRDg__PcL-36" edge="1">
          <mxGeometry relative="1" as="geometry">
            <Array as="points">
              <mxPoint x="430" y="60" />
              <mxPoint x="430" y="115" />
            </Array>
          </mxGeometry>
        </mxCell>
        <mxCell id="sRo3fHuxY35VgkNJXCjk-34" style="edgeStyle=orthogonalEdgeStyle;rounded=0;orthogonalLoop=1;jettySize=auto;html=1;exitX=0.5;exitY=1;exitDx=0;exitDy=0;entryX=0.5;entryY=0;entryDx=0;entryDy=0;strokeWidth=2;strokeColor=#CC0000;" parent="sRo3fHuxY35VgkNJXCjk-35" source="w5gB6YBrFvxGbigNmxhe-144" target="sRo3fHuxY35VgkNJXCjk-7" edge="1">
          <mxGeometry relative="1" as="geometry" />
        </mxCell>
        <mxCell id="sRo3fHuxY35VgkNJXCjk-31" value="" style="group" parent="sRo3fHuxY35VgkNJXCjk-35" vertex="1" connectable="0">
          <mxGeometry x="110" y="140" width="420" height="500" as="geometry" />
        </mxCell>
        <mxCell id="sRo3fHuxY35VgkNJXCjk-7" value="&lt;p style=&quot;margin: 4px 0px 0px; text-align: center;&quot;&gt;&lt;strong&gt;malloc_redir&lt;/strong&gt;&lt;/p&gt;&lt;p style=&quot;margin: 4px 0px 0px; text-align: center;&quot;&gt;&lt;strong&gt;(*data)&lt;br&gt;&lt;/strong&gt;&lt;/p&gt;&lt;div align=&quot;left&quot;&gt;&lt;ul&gt;&lt;li&gt;&lt;strong&gt;balade_out(cmd, i, lredir)&lt;/strong&gt;&lt;/li&gt;&lt;li&gt;&lt;strong&gt;ballad_in(cmd, i, lredir)&lt;/strong&gt;&lt;/li&gt;&lt;/ul&gt;&lt;/div&gt;" style="verticalAlign=middle;align=center;overflow=fill;fontSize=12;fontFamily=Helvetica;html=1;rounded=1;fontStyle=1;strokeWidth=3;fillColor=#ffcccc;strokeColor=#36393d;" parent="sRo3fHuxY35VgkNJXCjk-31" vertex="1">
          <mxGeometry x="105" y="60" width="190" height="91" as="geometry" />
        </mxCell>
        <mxCell id="sRo3fHuxY35VgkNJXCjk-10" value="&lt;p style=&quot;margin: 4px 0px 0px; text-align: center;&quot;&gt;&lt;strong&gt;malloc_in&lt;/strong&gt;&lt;/p&gt;&lt;p style=&quot;margin: 4px 0px 0px; text-align: center;&quot;&gt;&lt;strong&gt;(*str, *i, t_redirIndex)&lt;br&gt;&lt;/strong&gt;&lt;/p&gt;&lt;div align=&quot;left&quot;&gt;&lt;ul&gt;&lt;li&gt;&lt;strong&gt;pass_space(str, i)&lt;/strong&gt;&lt;/li&gt;&lt;li&gt;&lt;strong&gt;is_end_redir(str[i])&lt;/strong&gt;&lt;/li&gt;&lt;li&gt;&lt;strong&gt;pushback_redir(redirIndex)&lt;/strong&gt;&lt;br&gt;&lt;/li&gt;&lt;/ul&gt;&lt;/div&gt;" style="verticalAlign=middle;align=center;overflow=fill;fontSize=12;fontFamily=Helvetica;html=1;rounded=1;fontStyle=1;strokeWidth=3;fillColor=#ffcccc;strokeColor=#36393d;" parent="sRo3fHuxY35VgkNJXCjk-31" vertex="1">
          <mxGeometry x="220" y="160" width="200" height="100" as="geometry" />
        </mxCell>
        <mxCell id="sRo3fHuxY35VgkNJXCjk-16" style="edgeStyle=orthogonalEdgeStyle;rounded=0;orthogonalLoop=1;jettySize=auto;html=1;exitX=1;exitY=0.5;exitDx=0;exitDy=0;entryX=0.56;entryY=0.03;entryDx=0;entryDy=0;entryPerimeter=0;strokeWidth=2;strokeColor=#CC0000;" parent="sRo3fHuxY35VgkNJXCjk-31" source="sRo3fHuxY35VgkNJXCjk-7" target="sRo3fHuxY35VgkNJXCjk-10" edge="1">
          <mxGeometry relative="1" as="geometry" />
        </mxCell>
        <mxCell id="sRo3fHuxY35VgkNJXCjk-11" value="&lt;p style=&quot;margin: 4px 0px 0px; text-align: center;&quot;&gt;&lt;strong&gt;malloc_out&lt;/strong&gt;&lt;/p&gt;&lt;p style=&quot;margin: 4px 0px 0px; text-align: center;&quot;&gt;&lt;strong&gt;(*str, *i, t_redirIndex)&lt;br&gt;&lt;/strong&gt;&lt;/p&gt;&lt;div align=&quot;left&quot;&gt;&lt;ul&gt;&lt;li&gt;&lt;strong&gt;pass_space(str, i)&lt;/strong&gt;&lt;/li&gt;&lt;li&gt;&lt;strong&gt;is_end_redir(str[i])&lt;/strong&gt;&lt;/li&gt;&lt;li&gt;&lt;strong&gt;pushback_redir(redirIndex)&lt;/strong&gt;&lt;br&gt;&lt;/li&gt;&lt;/ul&gt;&lt;/div&gt;" style="verticalAlign=middle;align=center;overflow=fill;fontSize=12;fontFamily=Helvetica;html=1;rounded=1;fontStyle=1;strokeWidth=3;fillColor=#ffcccc;strokeColor=#36393d;" parent="sRo3fHuxY35VgkNJXCjk-31" vertex="1">
          <mxGeometry y="160" width="200" height="100" as="geometry" />
        </mxCell>
        <mxCell id="sRo3fHuxY35VgkNJXCjk-15" style="edgeStyle=orthogonalEdgeStyle;rounded=0;orthogonalLoop=1;jettySize=auto;html=1;exitX=0;exitY=0.5;exitDx=0;exitDy=0;entryX=0.365;entryY=-0.02;entryDx=0;entryDy=0;entryPerimeter=0;strokeWidth=2;strokeColor=#CC0000;" parent="sRo3fHuxY35VgkNJXCjk-31" source="sRo3fHuxY35VgkNJXCjk-7" target="sRo3fHuxY35VgkNJXCjk-11" edge="1">
          <mxGeometry relative="1" as="geometry" />
        </mxCell>
        <mxCell id="sRo3fHuxY35VgkNJXCjk-12" value="pass_space&#xa;(*str, *i)&#xa;incrementing &#39;i&#39; as long as it is a W_SPASE or TAB&#xa;&#xa;&#xa;&#xa;&#xa;" style="align=center;verticalAlign=top;fontStyle=1;strokeWidth=3;fillColor=#FFFFCC;whiteSpace=wrap;" parent="sRo3fHuxY35VgkNJXCjk-31" vertex="1">
          <mxGeometry x="125" y="270" width="160" height="70" as="geometry" />
        </mxCell>
        <mxCell id="sRo3fHuxY35VgkNJXCjk-19" style="edgeStyle=orthogonalEdgeStyle;rounded=0;orthogonalLoop=1;jettySize=auto;html=1;exitX=0.5;exitY=1;exitDx=0;exitDy=0;entryX=1.006;entryY=0.6;entryDx=0;entryDy=0;entryPerimeter=0;strokeColor=#CC0000;strokeWidth=2;" parent="sRo3fHuxY35VgkNJXCjk-31" source="sRo3fHuxY35VgkNJXCjk-10" target="sRo3fHuxY35VgkNJXCjk-12" edge="1">
          <mxGeometry relative="1" as="geometry" />
        </mxCell>
        <mxCell id="sRo3fHuxY35VgkNJXCjk-22" style="edgeStyle=orthogonalEdgeStyle;rounded=0;orthogonalLoop=1;jettySize=auto;html=1;exitX=0.5;exitY=1;exitDx=0;exitDy=0;entryX=0;entryY=0.5;entryDx=0;entryDy=0;strokeWidth=2;strokeColor=#CC0000;" parent="sRo3fHuxY35VgkNJXCjk-31" source="sRo3fHuxY35VgkNJXCjk-11" target="sRo3fHuxY35VgkNJXCjk-12" edge="1">
          <mxGeometry relative="1" as="geometry" />
        </mxCell>
        <mxCell id="sRo3fHuxY35VgkNJXCjk-13" value="is_end_redir&#xa;(char c)&#xa;control for &#39;\0&#39; or more than two &#39;&lt;&#39; &#39;&gt;&#39;. put error it true&#xa;&#xa;&#xa;&#xa;&#xa;&#xa;" style="align=center;verticalAlign=top;fontStyle=1;strokeWidth=3;fillColor=#FFFFCC;whiteSpace=wrap;" parent="sRo3fHuxY35VgkNJXCjk-31" vertex="1">
          <mxGeometry x="125" y="350" width="160" height="70" as="geometry" />
        </mxCell>
        <mxCell id="sRo3fHuxY35VgkNJXCjk-18" style="edgeStyle=orthogonalEdgeStyle;rounded=0;orthogonalLoop=1;jettySize=auto;html=1;exitX=0.5;exitY=1;exitDx=0;exitDy=0;entryX=1;entryY=0.5;entryDx=0;entryDy=0;strokeWidth=2;strokeColor=#CC0000;" parent="sRo3fHuxY35VgkNJXCjk-31" source="sRo3fHuxY35VgkNJXCjk-10" target="sRo3fHuxY35VgkNJXCjk-13" edge="1">
          <mxGeometry relative="1" as="geometry" />
        </mxCell>
        <mxCell id="sRo3fHuxY35VgkNJXCjk-21" style="edgeStyle=orthogonalEdgeStyle;rounded=0;orthogonalLoop=1;jettySize=auto;html=1;exitX=0.5;exitY=1;exitDx=0;exitDy=0;entryX=0;entryY=0.5;entryDx=0;entryDy=0;strokeWidth=2;strokeColor=#CC0000;" parent="sRo3fHuxY35VgkNJXCjk-31" source="sRo3fHuxY35VgkNJXCjk-11" target="sRo3fHuxY35VgkNJXCjk-13" edge="1">
          <mxGeometry relative="1" as="geometry" />
        </mxCell>
        <mxCell id="sRo3fHuxY35VgkNJXCjk-14" value="pushback_redir&#xa;(t_redirIndex)&#xa;malloc and add new node to t_redir list&#xa;&#xa;&#xa;&#xa;&#xa;&#xa;&#xa;" style="align=center;verticalAlign=top;fontStyle=1;strokeWidth=3;fillColor=#FFFFCC;whiteSpace=wrap;" parent="sRo3fHuxY35VgkNJXCjk-31" vertex="1">
          <mxGeometry x="125" y="430" width="160" height="70" as="geometry" />
        </mxCell>
        <mxCell id="sRo3fHuxY35VgkNJXCjk-17" style="edgeStyle=orthogonalEdgeStyle;rounded=0;orthogonalLoop=1;jettySize=auto;html=1;exitX=0.5;exitY=1;exitDx=0;exitDy=0;entryX=1;entryY=0.5;entryDx=0;entryDy=0;strokeWidth=2;strokeColor=#CC0000;" parent="sRo3fHuxY35VgkNJXCjk-31" source="sRo3fHuxY35VgkNJXCjk-10" target="sRo3fHuxY35VgkNJXCjk-14" edge="1">
          <mxGeometry relative="1" as="geometry" />
        </mxCell>
        <mxCell id="sRo3fHuxY35VgkNJXCjk-20" style="edgeStyle=orthogonalEdgeStyle;rounded=0;orthogonalLoop=1;jettySize=auto;html=1;exitX=0.5;exitY=1;exitDx=0;exitDy=0;entryX=0;entryY=0.5;entryDx=0;entryDy=0;strokeWidth=2;strokeColor=#CC0000;" parent="sRo3fHuxY35VgkNJXCjk-31" source="sRo3fHuxY35VgkNJXCjk-11" target="sRo3fHuxY35VgkNJXCjk-14" edge="1">
          <mxGeometry relative="1" as="geometry" />
        </mxCell>
        <mxCell id="sRo3fHuxY35VgkNJXCjk-9" value="&lt;div&gt;Going through &lt;b&gt;t_cmd&lt;/b&gt; list and check for &lt;b&gt;redir&lt;/b&gt; flag,&lt;/div&gt;&lt;div&gt;if true then iterating through cmd[i], calling functions to arrange redirection and check for errors&lt;br&gt;&lt;/div&gt;" style="shape=callout;whiteSpace=wrap;html=1;perimeter=calloutPerimeter;position2=0.83;base=10;size=10;position=0.86;" parent="sRo3fHuxY35VgkNJXCjk-31" vertex="1">
          <mxGeometry x="60" width="280" height="60" as="geometry" />
        </mxCell>
        <mxCell id="sRo3fHuxY35VgkNJXCjk-46" value="" style="group" parent="1" vertex="1" connectable="0">
          <mxGeometry x="-290" y="450" width="430" height="310" as="geometry" />
        </mxCell>
        <mxCell id="tulZz2T8-PFBjVz8LQCf-10" value="ft_pipeError&#xa;(*line)&#xa;iterating through the *line in search for pipe.&#xa;If found call: splitage()&#xa;not found call: pushback_cmd&#xa;&#xa;&#xa;&#xa;" style="align=center;verticalAlign=top;fontStyle=1;strokeWidth=3;whiteSpace=wrap;strokeColor=#000000;fillColor=#FFFFCC;" parent="sRo3fHuxY35VgkNJXCjk-46" vertex="1">
          <mxGeometry x="30" y="110" width="140" height="110" as="geometry" />
        </mxCell>
        <mxCell id="tulZz2T8-PFBjVz8LQCf-13" value="pushback_cmd&#xa;(*cmd, *cmdIndex)&#xa;&#xa;malloc t_cmd node and adding it to the end of t_cmd list (cmdIndex-&gt;end)&#xa;&#xa;&#xa;&#xa;" style="align=center;verticalAlign=top;fontStyle=1;strokeWidth=3;whiteSpace=wrap;strokeColor=#000000;fillColor=#FFFFCC;" parent="sRo3fHuxY35VgkNJXCjk-46" vertex="1">
          <mxGeometry x="30" y="230" width="230" height="80" as="geometry" />
        </mxCell>
        <mxCell id="tulZz2T8-PFBjVz8LQCf-16" style="edgeStyle=orthogonalEdgeStyle;rounded=0;orthogonalLoop=1;jettySize=auto;html=1;exitX=0.5;exitY=1;exitDx=0;exitDy=0;strokeColor=#CC0000;strokeWidth=2;entryX=1;entryY=0.5;entryDx=0;entryDy=0;" parent="sRo3fHuxY35VgkNJXCjk-46" source="tulZz2T8-PFBjVz8LQCf-14" target="tulZz2T8-PFBjVz8LQCf-13" edge="1">
          <mxGeometry relative="1" as="geometry">
            <mxPoint x="260" y="280" as="targetPoint" />
            <Array as="points">
              <mxPoint x="295" y="270" />
            </Array>
          </mxGeometry>
        </mxCell>
        <mxCell id="tulZz2T8-PFBjVz8LQCf-14" value="&lt;p style=&quot;margin: 4px 0px 0px; text-align: center;&quot;&gt;&lt;strong&gt;splitage&lt;/strong&gt;&lt;/p&gt;&lt;p style=&quot;margin: 4px 0px 0px; text-align: center;&quot;&gt;&lt;strong&gt;(*line, cmdIndex)&lt;br&gt;&lt;/strong&gt;&lt;/p&gt;&lt;div align=&quot;left&quot;&gt;&lt;ul&gt;&lt;li&gt;&lt;strong&gt;ft_split(line, &#39;|&#39;)&lt;br&gt;&lt;/strong&gt;&lt;/li&gt;&lt;li&gt;&lt;strong&gt;pushback_cmd(line[i], cmdIndex)&lt;/strong&gt;&lt;/li&gt;&lt;/ul&gt;&lt;/div&gt;" style="verticalAlign=middle;align=center;overflow=fill;fontSize=12;fontFamily=Helvetica;html=1;rounded=1;fontStyle=1;strokeWidth=3;fillColor=#b0e3e6;strokeColor=#0e8088;" parent="sRo3fHuxY35VgkNJXCjk-46" vertex="1">
          <mxGeometry x="200" y="110" width="230" height="85" as="geometry" />
        </mxCell>
        <mxCell id="sRo3fHuxY35VgkNJXCjk-42" style="edgeStyle=orthogonalEdgeStyle;rounded=0;orthogonalLoop=1;jettySize=auto;html=1;exitX=0.25;exitY=1;exitDx=0;exitDy=0;entryX=0.687;entryY=0.013;entryDx=0;entryDy=0;entryPerimeter=0;strokeWidth=2;strokeColor=#CC0000;" parent="sRo3fHuxY35VgkNJXCjk-46" source="w5gB6YBrFvxGbigNmxhe-155" target="tulZz2T8-PFBjVz8LQCf-13" edge="1">
          <mxGeometry relative="1" as="geometry" />
        </mxCell>
        <mxCell id="sRo3fHuxY35VgkNJXCjk-43" style="edgeStyle=orthogonalEdgeStyle;rounded=0;orthogonalLoop=1;jettySize=auto;html=1;exitX=0.003;exitY=0.88;exitDx=0;exitDy=0;entryX=0.386;entryY=-0.018;entryDx=0;entryDy=0;entryPerimeter=0;strokeWidth=2;strokeColor=#CC0000;exitPerimeter=0;" parent="sRo3fHuxY35VgkNJXCjk-46" source="w5gB6YBrFvxGbigNmxhe-155" target="tulZz2T8-PFBjVz8LQCf-10" edge="1">
          <mxGeometry relative="1" as="geometry">
            <Array as="points">
              <mxPoint x="114" y="90" />
              <mxPoint x="84" y="90" />
            </Array>
          </mxGeometry>
        </mxCell>
        <mxCell id="sRo3fHuxY35VgkNJXCjk-45" style="edgeStyle=orthogonalEdgeStyle;rounded=0;orthogonalLoop=1;jettySize=auto;html=1;exitX=0.5;exitY=1;exitDx=0;exitDy=0;entryX=0.287;entryY=-0.012;entryDx=0;entryDy=0;entryPerimeter=0;strokeWidth=2;strokeColor=#CC0000;" parent="sRo3fHuxY35VgkNJXCjk-46" source="w5gB6YBrFvxGbigNmxhe-155" target="tulZz2T8-PFBjVz8LQCf-14" edge="1">
          <mxGeometry relative="1" as="geometry" />
        </mxCell>
        <mxCell id="w5gB6YBrFvxGbigNmxhe-155" value="&lt;p style=&quot;margin: 4px 0px 0px; text-align: center;&quot;&gt;&lt;strong&gt;splitOrNot&lt;/strong&gt;&lt;/p&gt;&lt;p style=&quot;margin: 4px 0px 0px; text-align: center;&quot;&gt;&lt;strong&gt;(*line, *cmdIndex)&lt;br&gt;&lt;/strong&gt;&lt;/p&gt;&lt;div align=&quot;left&quot;&gt;&lt;ul&gt;&lt;li&gt;&lt;strong&gt;ft_pipeError(line) (if == 1) return;&lt;br&gt;&lt;/strong&gt;&lt;/li&gt;&lt;li&gt;&lt;strong&gt;pushback_cmd(line, cmdIndex) (if == 2)&lt;br&gt;&lt;/strong&gt;&lt;/li&gt;&lt;li&gt;&lt;strong&gt;splitage(line, cmdIndex) (if == 0)&lt;br&gt;&lt;/strong&gt;&lt;/li&gt;&lt;/ul&gt;&lt;/div&gt;" style="verticalAlign=middle;align=center;overflow=fill;fontSize=12;fontFamily=Helvetica;html=1;rounded=1;fontStyle=1;strokeWidth=3;fillColor=#b0e3e6;strokeColor=#0e8088;" parent="sRo3fHuxY35VgkNJXCjk-46" vertex="1">
          <mxGeometry x="113" width="300" height="100" as="geometry" />
        </mxCell>
        <mxCell id="w5gB6YBrFvxGbigNmxhe-157" value="&lt;div&gt;Here we control the next step based on the return from: &lt;b&gt;ft_pipeError &lt;br&gt;&lt;/b&gt;&lt;/div&gt;&lt;div&gt;&lt;b&gt;(0, 1, 2)&lt;/b&gt;&lt;/div&gt; " style="shape=callout;whiteSpace=wrap;html=1;perimeter=calloutPerimeter;position2=1;base=20;size=5;position=0.72;" parent="sRo3fHuxY35VgkNJXCjk-46" vertex="1">
          <mxGeometry width="110" height="80" as="geometry" />
        </mxCell>
        <mxCell id="sRo3fHuxY35VgkNJXCjk-47" value="" style="group" parent="1" vertex="1" connectable="0">
          <mxGeometry x="220" y="480" width="200" height="295" as="geometry" />
        </mxCell>
        <mxCell id="w5gB6YBrFvxGbigNmxhe-150" value="*init_cmd&#xa;()&#xa;&#xa;malloc t_cmdIndex and return an empty node.&#xa;&#xa;&#xa;" style="align=center;verticalAlign=top;fontStyle=1;strokeWidth=3;fillColor=#FFFFCC;whiteSpace=wrap;" parent="sRo3fHuxY35VgkNJXCjk-47" vertex="1">
          <mxGeometry x="5" y="185" width="90" height="110" as="geometry" />
        </mxCell>
        <mxCell id="w5gB6YBrFvxGbigNmxhe-152" value="**ft_getpath&#xa;(*env)&#xa;&#xa;searching for the &quot;PATH=&quot; and ft_split it by &#39;:&#39;.&#xa;&#xa;&#xa;" style="align=center;verticalAlign=top;fontStyle=1;strokeWidth=3;fillColor=#FFFFCC;whiteSpace=wrap;" parent="sRo3fHuxY35VgkNJXCjk-47" vertex="1">
          <mxGeometry x="105" y="185" width="90" height="110" as="geometry" />
        </mxCell>
        <mxCell id="w5gB6YBrFvxGbigNmxhe-153" style="edgeStyle=orthogonalEdgeStyle;rounded=0;orthogonalLoop=1;jettySize=auto;html=1;entryX=0.5;entryY=0;entryDx=0;entryDy=0;strokeWidth=2;strokeColor=#CC0000;" parent="sRo3fHuxY35VgkNJXCjk-47" target="w5gB6YBrFvxGbigNmxhe-152" edge="1">
          <mxGeometry relative="1" as="geometry">
            <mxPoint x="170" y="165" as="sourcePoint" />
          </mxGeometry>
        </mxCell>
        <mxCell id="sRo3fHuxY35VgkNJXCjk-39" style="edgeStyle=orthogonalEdgeStyle;rounded=0;orthogonalLoop=1;jettySize=auto;html=1;exitX=0.25;exitY=1;exitDx=0;exitDy=0;entryX=0.5;entryY=0;entryDx=0;entryDy=0;strokeWidth=2;strokeColor=#CC0000;" parent="sRo3fHuxY35VgkNJXCjk-47" source="w5gB6YBrFvxGbigNmxhe-145" target="w5gB6YBrFvxGbigNmxhe-150" edge="1">
          <mxGeometry relative="1" as="geometry" />
        </mxCell>
        <mxCell id="w5gB6YBrFvxGbigNmxhe-145" value="&lt;p style=&quot;margin: 4px 0px 0px; text-align: center;&quot;&gt;&lt;strong&gt;init_data_cmd&lt;/strong&gt;&lt;/p&gt;&lt;p style=&quot;margin: 4px 0px 0px; text-align: center;&quot;&gt;&lt;strong&gt;(*data)&lt;br&gt;&lt;/strong&gt;&lt;/p&gt;&lt;div align=&quot;left&quot;&gt;&lt;ul&gt;&lt;li&gt;&lt;strong&gt;init_cmd()&lt;/strong&gt;&lt;/li&gt;&lt;li&gt;&lt;strong&gt;ft_getpath(data-&amp;gt;env);&lt;/strong&gt;&lt;/li&gt;&lt;/ul&gt;&lt;/div&gt;" style="verticalAlign=middle;align=center;overflow=fill;fontSize=12;fontFamily=Helvetica;html=1;rounded=1;fontStyle=1;strokeWidth=3;fillColor=#ffff88;strokeColor=#36393d;" parent="sRo3fHuxY35VgkNJXCjk-47" vertex="1">
          <mxGeometry x="5" y="75" width="190" height="90" as="geometry" />
        </mxCell>
        <mxCell id="w5gB6YBrFvxGbigNmxhe-146" value="&lt;div&gt;-&amp;gt; return from &lt;b&gt;init_cmd&lt;/b&gt; is stored in:&lt;/div&gt;&lt;div&gt;&lt;b&gt;data-&amp;gt;cmdIndex&lt;/b&gt;&lt;/div&gt;&lt;div&gt;&lt;div&gt;-&amp;gt; return from &lt;b&gt;ft_getpath&lt;/b&gt; stored in:&lt;/div&gt;&lt;b&gt;data-&amp;gt;path_exec&lt;/b&gt;&lt;/div&gt;" style="shape=callout;whiteSpace=wrap;html=1;perimeter=calloutPerimeter;position2=0.2;size=5;position=0.1;base=10;" parent="sRo3fHuxY35VgkNJXCjk-47" vertex="1">
          <mxGeometry width="200" height="70" as="geometry" />
        </mxCell>
        <mxCell id="tulZz2T8-PFBjVz8LQCf-8" value="" style="curved=1;endArrow=classic;html=1;rounded=0;strokeColor=#0066CC;dashed=1;entryX=0.923;entryY=0.333;entryDx=0;entryDy=0;entryPerimeter=0;exitX=0.7;exitY=0.429;exitDx=0;exitDy=0;exitPerimeter=0;" parent="1" source="w5gB6YBrFvxGbigNmxhe-146" target="w5gB6YBrFvxGbigNmxhe-140" edge="1">
          <mxGeometry width="50" height="50" relative="1" as="geometry">
            <mxPoint x="640" y="220" as="sourcePoint" />
            <mxPoint x="388" y="32" as="targetPoint" />
            <Array as="points">
              <mxPoint x="430" y="460" />
              <mxPoint x="440" y="260" />
              <mxPoint x="560" y="220" />
            </Array>
          </mxGeometry>
        </mxCell>
        <mxCell id="tulZz2T8-PFBjVz8LQCf-7" value="" style="curved=1;endArrow=classic;html=1;rounded=0;strokeColor=#0066CC;dashed=1;" parent="1" edge="1">
          <mxGeometry width="50" height="50" relative="1" as="geometry">
            <mxPoint x="360" y="540" as="sourcePoint" />
            <mxPoint x="470" y="180" as="targetPoint" />
            <Array as="points">
              <mxPoint x="460" y="580" />
              <mxPoint x="410" y="240" />
              <mxPoint x="520" y="200" />
            </Array>
          </mxGeometry>
        </mxCell>
        <mxCell id="tulZz2T8-PFBjVz8LQCf-19" value="&lt;p style=&quot;margin: 4px 0px 0px; text-align: center;&quot;&gt;&lt;strong&gt;exec&lt;/strong&gt;&lt;/p&gt;&lt;p style=&quot;margin: 4px 0px 0px; text-align: center;&quot;&gt;&lt;strong&gt;(*t_cmdIndex, **envp, *t_envSom)&lt;br&gt;&lt;/strong&gt;&lt;/p&gt;&lt;div align=&quot;left&quot;&gt;&lt;ul&gt;&lt;li&gt;&lt;strong&gt;simple_cmd(envSom, cmd-&amp;gt;begin, envp, cmdIndex)&lt;/strong&gt;&lt;/li&gt;&lt;li&gt;&lt;strong&gt;ft_simple_pipe(cmdIndex, envp, envSom)&lt;/strong&gt;&lt;/li&gt;&lt;li&gt;&lt;strong&gt;multi_pipe(cmdIndex, envp, envSom)&lt;/strong&gt;&lt;/li&gt;&lt;/ul&gt;&lt;/div&gt;" style="verticalAlign=middle;align=center;overflow=fill;fontSize=12;fontFamily=Helvetica;html=1;rounded=1;fontStyle=1;strokeWidth=3;fillColor=#cdeb8b;strokeColor=#36393d;" parent="1" vertex="1">
          <mxGeometry x="570" y="260" width="340" height="110" as="geometry" />
        </mxCell>
        <mxCell id="5Ly4zNOEhAWGRDg__PcL-25" style="edgeStyle=orthogonalEdgeStyle;rounded=0;orthogonalLoop=1;jettySize=auto;html=1;exitX=0.209;exitY=1;exitDx=0;exitDy=0;entryX=0.5;entryY=0;entryDx=0;entryDy=0;strokeWidth=2;strokeColor=#CC0000;exitPerimeter=0;" parent="1" source="tulZz2T8-PFBjVz8LQCf-19" target="5Ly4zNOEhAWGRDg__PcL-3" edge="1">
          <mxGeometry relative="1" as="geometry">
            <Array as="points">
              <mxPoint x="640" y="370" />
            </Array>
          </mxGeometry>
        </mxCell>
        <mxCell id="5Ly4zNOEhAWGRDg__PcL-26" style="edgeStyle=orthogonalEdgeStyle;rounded=0;orthogonalLoop=1;jettySize=auto;html=1;exitX=0.818;exitY=0.991;exitDx=0;exitDy=0;entryX=0.5;entryY=0;entryDx=0;entryDy=0;strokeWidth=2;strokeColor=#CC0000;exitPerimeter=0;" parent="1" source="tulZz2T8-PFBjVz8LQCf-19" target="5Ly4zNOEhAWGRDg__PcL-15" edge="1">
          <mxGeometry relative="1" as="geometry" />
        </mxCell>
        <mxCell id="5Ly4zNOEhAWGRDg__PcL-28" style="edgeStyle=orthogonalEdgeStyle;rounded=0;orthogonalLoop=1;jettySize=auto;html=1;exitX=0;exitY=0.75;exitDx=0;exitDy=0;strokeWidth=2;strokeColor=#CC0000;" parent="1" source="5Ly4zNOEhAWGRDg__PcL-15" edge="1">
          <mxGeometry relative="1" as="geometry">
            <mxPoint x="760" y="575" as="targetPoint" />
          </mxGeometry>
        </mxCell>
        <mxCell id="5Ly4zNOEhAWGRDg__PcL-15" value="&lt;p style=&quot;margin: 4px 0px 0px; text-align: center;&quot;&gt;&lt;strong&gt;ft_simple_pipe /&lt;/strong&gt;&lt;/p&gt;&lt;p style=&quot;margin: 4px 0px 0px; text-align: center;&quot;&gt;&lt;strong&gt;multi_pipe&lt;/strong&gt;&lt;strong&gt;&lt;/strong&gt;&lt;/p&gt;&lt;p style=&quot;margin: 4px 0px 0px; text-align: center;&quot;&gt;&lt;strong&gt;(*cmdIndex, **envp, *envSom)&lt;br&gt;&lt;/strong&gt;&lt;/p&gt;&lt;div align=&quot;left&quot;&gt;&lt;ul&gt;&lt;li&gt;&lt;font color=&quot;#009900&quot;&gt;&lt;strong&gt;fork()&lt;/strong&gt;&lt;/font&gt;&lt;/li&gt;&lt;li&gt;&lt;font color=&quot;#009900&quot;&gt;&lt;strong&gt;pipe()&lt;/strong&gt;&lt;/font&gt;&lt;/li&gt;&lt;li&gt;&lt;font color=&quot;#009900&quot;&gt;close()&lt;/font&gt;&lt;/li&gt;&lt;li&gt;&lt;font color=&quot;#009900&quot;&gt;dup2()&lt;/font&gt;&lt;/li&gt;&lt;li&gt;&lt;font color=&quot;#009900&quot;&gt;exit(0)&lt;/font&gt;&lt;/li&gt;&lt;li&gt;&lt;font color=&quot;#009900&quot;&gt;waitpid()&lt;/font&gt;&lt;/li&gt;&lt;li&gt;fork_error()&lt;font color=&quot;#009900&quot;&gt;&lt;/font&gt;&lt;/li&gt;&lt;li&gt;ft_builtins(begin, env)&lt;/li&gt;&lt;li&gt;ft_execve(cmd, envp)&lt;/li&gt;&lt;/ul&gt;&lt;/div&gt;" style="verticalAlign=middle;align=center;overflow=fill;fontSize=12;fontFamily=Helvetica;html=1;rounded=1;fontStyle=1;strokeWidth=3;fillColor=#E6FFCC;" parent="1" vertex="1">
          <mxGeometry x="760" y="410" width="177" height="220" as="geometry" />
        </mxCell>
        <mxCell id="5Ly4zNOEhAWGRDg__PcL-17" value="fork_error&#xa;()&#xa;Here we open fork() and return its pid&#xa;&#xa;&#xa;&#xa;" style="align=center;verticalAlign=top;fontStyle=1;strokeWidth=3;whiteSpace=wrap;strokeColor=#000000;fillColor=#FFFFCC;" parent="1" vertex="1">
          <mxGeometry x="790" y="650" width="120" height="70" as="geometry" />
        </mxCell>
        <mxCell id="5Ly4zNOEhAWGRDg__PcL-21" style="edgeStyle=orthogonalEdgeStyle;rounded=0;orthogonalLoop=1;jettySize=auto;html=1;exitX=0.056;exitY=0.982;exitDx=0;exitDy=0;entryX=1;entryY=0.889;entryDx=0;entryDy=0;entryPerimeter=0;exitPerimeter=0;strokeWidth=2;strokeColor=#CC0000;" parent="1" source="5Ly4zNOEhAWGRDg__PcL-15" target="5Ly4zNOEhAWGRDg__PcL-4" edge="1">
          <mxGeometry relative="1" as="geometry">
            <Array as="points">
              <mxPoint x="770" y="701" />
            </Array>
          </mxGeometry>
        </mxCell>
        <mxCell id="5Ly4zNOEhAWGRDg__PcL-23" style="edgeStyle=orthogonalEdgeStyle;rounded=0;orthogonalLoop=1;jettySize=auto;html=1;exitX=0.5;exitY=1;exitDx=0;exitDy=0;entryX=0.5;entryY=0;entryDx=0;entryDy=0;strokeColor=#CC0000;strokeWidth=2;" parent="1" source="5Ly4zNOEhAWGRDg__PcL-15" target="5Ly4zNOEhAWGRDg__PcL-17" edge="1">
          <mxGeometry relative="1" as="geometry" />
        </mxCell>
        <mxCell id="5Ly4zNOEhAWGRDg__PcL-3" value="&lt;p style=&quot;margin: 4px 0px 0px; text-align: center;&quot;&gt;&lt;strong&gt;simple_cmd&lt;/strong&gt;&lt;/p&gt;&lt;p style=&quot;margin: 4px 0px 0px; text-align: center;&quot;&gt;&lt;strong&gt;(*envSom, t_cmd, **envp, cmdIndex)&lt;br&gt;&lt;/strong&gt;&lt;/p&gt;&lt;div align=&quot;left&quot;&gt;&lt;ul&gt;&lt;li&gt;&lt;strong&gt;ft_builtins(cmd, env)&lt;/strong&gt;&lt;/li&gt;&lt;li&gt;&lt;font color=&quot;#009900&quot;&gt;&lt;strong&gt;fork()&lt;/strong&gt;&lt;/font&gt;&lt;br&gt;&lt;/li&gt;&lt;li&gt;&lt;strong&gt;ft_execve(cmd, envp)&lt;/strong&gt;&lt;/li&gt;&lt;/ul&gt;&lt;/div&gt;" style="verticalAlign=middle;align=center;overflow=fill;fontSize=12;fontFamily=Helvetica;html=1;rounded=1;fontStyle=1;strokeWidth=3;fillColor=#E6FFCC;" parent="1" vertex="1">
          <mxGeometry x="530" y="410" width="220" height="100" as="geometry" />
        </mxCell>
        <mxCell id="5Ly4zNOEhAWGRDg__PcL-4" value="&lt;p style=&quot;margin: 4px 0px 0px; text-align: center;&quot;&gt;&lt;strong&gt;ft_builtins&lt;/strong&gt;&lt;/p&gt;&lt;p style=&quot;margin: 4px 0px 0px; text-align: center;&quot;&gt;&lt;strong&gt;(t_cmd, t_envSom)&lt;br&gt;&lt;/strong&gt;&lt;/p&gt;&lt;div align=&quot;left&quot;&gt;&lt;ul&gt;&lt;li&gt;&lt;strong&gt;ft_env()&lt;/strong&gt;&lt;/li&gt;&lt;li&gt;&lt;strong&gt;ft_pwd()&lt;/strong&gt;&lt;/li&gt;&lt;li&gt;&lt;strong&gt;ft_cd()&lt;/strong&gt;&lt;/li&gt;&lt;li&gt;&lt;strong&gt;ft_echo()&lt;/strong&gt;&lt;/li&gt;&lt;li&gt;&lt;strong&gt;ft_exit()&lt;/strong&gt;&lt;/li&gt;&lt;li&gt;&lt;strong&gt;ft_export()&lt;/strong&gt;&lt;/li&gt;&lt;li&gt;ft_unset()&lt;br&gt;&lt;/li&gt;&lt;/ul&gt;&lt;/div&gt;" style="verticalAlign=middle;align=center;overflow=fill;fontSize=12;fontFamily=Helvetica;html=1;rounded=1;fontStyle=1;strokeWidth=3;fillColor=#E6FFCC;" parent="1" vertex="1">
          <mxGeometry x="490" y="550" width="120" height="170" as="geometry" />
        </mxCell>
        <mxCell id="5Ly4zNOEhAWGRDg__PcL-10" style="edgeStyle=orthogonalEdgeStyle;rounded=0;orthogonalLoop=1;jettySize=auto;html=1;entryX=0.75;entryY=0;entryDx=0;entryDy=0;strokeWidth=2;strokeColor=#CC0000;" parent="1" target="5Ly4zNOEhAWGRDg__PcL-4" edge="1">
          <mxGeometry relative="1" as="geometry">
            <Array as="points">
              <mxPoint x="570" y="510" />
            </Array>
            <mxPoint x="570" y="510" as="sourcePoint" />
          </mxGeometry>
        </mxCell>
        <mxCell id="5Ly4zNOEhAWGRDg__PcL-11" value="&lt;p style=&quot;margin: 4px 0px 0px; text-align: center;&quot;&gt;&lt;strong&gt;ft_execve&lt;/strong&gt;&lt;/p&gt;&lt;p style=&quot;margin: 4px 0px 0px; text-align: center;&quot;&gt;&lt;strong&gt;(*cmd, **envp)&lt;br&gt;&lt;/strong&gt;&lt;/p&gt;&lt;div align=&quot;left&quot;&gt;&lt;ul&gt;&lt;li&gt;&lt;strong&gt;no_str(cmd)&lt;/strong&gt;&lt;/li&gt;&lt;li&gt;&lt;strong&gt;ft_split(cmd, &#39;&amp;nbsp; &#39;)&lt;/strong&gt;&lt;/li&gt;&lt;li&gt;ft_strjoin()&lt;/li&gt;&lt;li&gt;execve()&lt;/li&gt;&lt;li&gt;exit(127)&lt;br&gt;&lt;/li&gt;&lt;/ul&gt;&lt;/div&gt;" style="verticalAlign=middle;align=center;overflow=fill;fontSize=12;fontFamily=Helvetica;html=1;rounded=1;fontStyle=1;strokeWidth=3;fillColor=#E6FFCC;" parent="1" vertex="1">
          <mxGeometry x="620" y="550" width="130" height="130" as="geometry" />
        </mxCell>
        <mxCell id="5Ly4zNOEhAWGRDg__PcL-12" style="edgeStyle=orthogonalEdgeStyle;rounded=0;orthogonalLoop=1;jettySize=auto;html=1;exitX=0.75;exitY=1;exitDx=0;exitDy=0;strokeWidth=2;strokeColor=#CC0000;" parent="1" source="5Ly4zNOEhAWGRDg__PcL-3" edge="1">
          <mxGeometry relative="1" as="geometry">
            <Array as="points">
              <mxPoint x="695" y="550" />
            </Array>
            <mxPoint x="695" y="550" as="targetPoint" />
          </mxGeometry>
        </mxCell>
        <mxCell id="5Ly4zNOEhAWGRDg__PcL-13" value="&lt;div&gt;We first call &lt;b&gt;ft_builtin&lt;/b&gt;, execute if it is builtin cmd and return.&lt;/div&gt;&lt;div&gt;If not we &lt;font color=&quot;#009900&quot;&gt;&lt;b&gt;fork()&lt;/b&gt;&lt;/font&gt; and call &lt;b&gt;ft_execve&lt;/b&gt; on child&lt;br&gt;&lt;/div&gt;" style="shape=callout;whiteSpace=wrap;html=1;perimeter=calloutPerimeter;position2=1;base=10;size=10;position=0.86;" parent="1" vertex="1">
          <mxGeometry x="440" y="320" width="123" height="90" as="geometry" />
        </mxCell>
      </root>
    </mxGraphModel>
  </diagram>
</mxfile>
